<?xml version="1.0" encoding="UTF-8"?>
<svg width="39.33mm" height="6.0161mm" version="1.1" viewBox="0 0 39.33 6.0161" xml:space="preserve" xmlns="http://www.w3.org/2000/svg"><g transform="translate(-165.54 -6.517)"><g stroke-width=".26458" aria-label="C"><g stroke-width=".070004" aria-label="an   suba"><path d="m171.52 12.533q-0.381 0-0.7112-0.13547-0.32173-0.14393-0.52493-0.41487-0.19473-0.2794-0.19473-0.69427 0-0.59267 0.41486-0.94827 0.42334-0.3556 1.2446-0.3556h1.1853v-0.11007q0-0.37253-0.21167-0.52493-0.2032-0.1524-0.82973-0.1524-0.6858 0-1.3208 0.21167v-0.80433q0.2794-0.11007 0.67733-0.1778 0.4064-0.0762 0.88053-0.0762 0.90594 0 1.397 0.37253 0.49954 0.36407 0.49954 1.1769v2.5485h-0.9906l-0.0593-0.36407q-0.23707 0.21167-0.5842 0.3302t-0.87207 0.11853zm0.31327-0.75353q0.381 0 0.6604-0.127t0.44027-0.32173v-0.635h-1.1599q-0.66886 0-0.66886 0.55033 0 0.5334 0.72813 0.5334z"/><path d="m174.95 12.448v-4.0132h1.0583l0.0423 0.381q0.24554-0.18627 0.61807-0.32173 0.381-0.14393 0.79587-0.14393 0.79586 0 1.1599 0.37253 0.36407 0.37253 0.36407 1.1515v2.5739h-1.143v-2.5146q0-0.4064-0.16934-0.57573-0.16086-0.16933-0.6096-0.16933-0.26246 0-0.5334 0.11853-0.26246 0.11853-0.44026 0.29633v2.8448z"/><path d="m186.96 12.533q-0.44874 0-0.85514-0.06773-0.4064-0.05927-0.65193-0.1524v-0.94827q0.29633 0.11853 0.66887 0.18627 0.37253 0.05927 0.6858 0.05927 0.42333 0 0.59266-0.0508 0.1778-0.0508 0.1778-0.2286 0-0.2032-0.27093-0.29633-0.26247-0.09313-0.7874-0.26247-0.55033-0.18627-0.84667-0.44873-0.29633-0.26247-0.29633-0.77893 0-0.57573 0.41487-0.88053 0.42333-0.31327 1.3547-0.31327 0.37254 0 0.70274 0.059267 0.3302 0.0508 0.5588 0.127v0.9398q-0.2286-0.11007-0.52494-0.16087-0.29633-0.059267-0.55033-0.059267-0.36407 0-0.5842 0.0508-0.21167 0.0508-0.21167 0.22013 0 0.18627 0.2286 0.26247 0.23707 0.0762 0.72814 0.2286 0.4826 0.14393 0.75353 0.31327t0.381 0.4064q0.11007 0.2286 0.11007 0.57573 0 1.2192-1.778 1.2192z"/><path d="m191.02 12.533q-0.71967 0-1.1261-0.39793-0.39793-0.4064-0.39793-1.1853v-2.5146h1.143v2.4892q0 0.4064 0.19473 0.59267 0.19474 0.1778 0.58421 0.1778 0.29633 0 0.54186-0.11853 0.254-0.11853 0.4318-0.29633v-2.8448h1.143v4.0132h-1.0583l-0.0423-0.381q-0.254 0.2032-0.60114 0.33867-0.33866 0.127-0.8128 0.127z"/><path d="m196.87 12.533q-0.42334 0-0.7366-0.11007-0.31327-0.11853-0.57574-0.34713l-0.0593 0.37253h-0.9906v-5.7065h1.143v1.9135q0.24553-0.1524 0.55033-0.2286t0.635-0.0762q0.8636 0 1.3631 0.49107 0.508 0.4826 0.508 1.5663 0 1.0837-0.49953 1.6087-0.49107 0.51647-1.3377 0.51647zm-0.32174-0.8382q0.55034 0 0.77047-0.32173 0.2286-0.32173 0.2286-0.9652 0-0.66887-0.24553-0.9398-0.23707-0.2794-0.762-0.2794-0.26247 0-0.49954 0.0762-0.2286 0.0762-0.38946 0.22013v1.8457q0.16933 0.1778 0.39793 0.27093 0.23707 0.09313 0.49953 0.09313z"/><path d="m200.77 12.533q-0.381 0-0.7112-0.13547-0.32173-0.14393-0.52493-0.41487-0.19474-0.2794-0.19474-0.69427 0-0.59267 0.41487-0.94827 0.42334-0.3556 1.2446-0.3556h1.1853v-0.11007q0-0.37253-0.21167-0.52493-0.2032-0.1524-0.82973-0.1524-0.6858 0-1.3208 0.21167v-0.80433q0.27941-0.11007 0.67734-0.1778 0.4064-0.0762 0.88053-0.0762 0.90594 0 1.397 0.37253 0.49954 0.36407 0.49954 1.1769v2.5485h-0.9906l-0.0593-0.36407q-0.23707 0.21167-0.5842 0.3302t-0.87207 0.11853zm0.31327-0.75353q0.381 0 0.6604-0.127t0.44027-0.32173v-0.635h-1.1599q-0.66886 0-0.66886 0.55033 0 0.5334 0.72813 0.5334z"/></g><g transform="matrix(.14675 0 0 .14675 164.46 5.7661)" stroke-width=".26458"><path class="st0" d="m9.711 5.1164c1.1 0 2.1 1 2.1 2.3l-0.3 35.5c0 1.2-0.9 2.2-2.1 2.2-0.3 0-0.6-0.1-0.8-0.2-0.7-0.3-1.2-1.1-1.2-2.1l0.2-35.5c0-1.2 0.9-2.2 2.1-2.2z"/><path class="st1" d="m21.311 20.316c-0.8-0.8-0.8-2.1 0-2.9l11.7-11.7c0.8-0.8 2.1-0.8 2.9 0s0.8 2.1 0 2.9l-11.7 11.7c-0.8 0.8-2.1 0.8-2.9 0z" fill="#a00"/><path class="st0" d="m35.711 44.616c-0.8 0.8-2.2 0.8-3.1 0l-17.7-17.7c-0.8-0.8-0.8-2.2 0-3.1 0.8-0.8 2.2-0.8 3.1 0l17.8 17.8c0.7 0.8 0.7 2.2-0.1 3z"/><path class="st0" d="m14.911 26.916c-0.8-0.8-0.8-2.2 0-3.1l2.7-2.7c0.8-0.8 2.2-0.8 3.1 0 0.8 0.8 0.8 2.2 0 3.1l-2.7 2.7c-0.9 0.8-2.3 0.8-3.1 0z"/></g><g transform="matrix(.35261 0 0 .35261 179.29 6.7119)" fill="currentColor" stroke-width=".26458"><path d="m8.3553 6.3553a2 2 0 1 0 0 4 2 2 0 0 0 0-4zm0 3a1 1 0 1 1 0-2 1 1 0 0 1 0 2z" fill="#a00"/><path d="m16.289 8.3553a8 8 0 1 1-16 0 8 8 0 0 1 16 0zm-12 0a4 4 0 1 0 8 0 4 4 0 0 0-8 0z"/></g><path transform="matrix(1.3327 0 0 1.3327 155.1 -20.636)" d="m18.501 22.477c-0.0135-0.0013-0.04639-0.52588 0.38964-1.0295 0.01128-0.01303 0.02271-0.02582 0.03427-0.03837 0.43229-0.46891 0.92687-0.50495 0.92983-0.49272 0.0063 0.02605-0.47308 0.14079-0.85635 0.56018-0.01086 0.01188-0.02163 0.02397-0.03228 0.03627-0.38668 0.4464-0.43767 0.96673-0.4651 0.9641z" fill="#fff"/><path transform="matrix(1.3327 0 0 1.3327 155.07 -20.657)" d="m18.795 22.28c-0.0088-0.0021 0.02829-0.3168 0.28143-0.63142 0.0077-0.0095 0.01549-0.019 0.02349-0.02843 0.27333-0.32236 0.59692-0.41846 0.60077-0.40921 0.0053 0.01272-0.30734 0.14031-0.5627 0.4415-0.0077 0.0091-0.01533 0.01828-0.02277 0.02747-0.23818 0.29394-0.30721 0.60314-0.32022 0.6001z" fill="#fff"/><g fill="#a00" stroke-width=".030562" aria-label="2 "><path d="m203.24 8.6187q0-0.15247 0.0237-0.27445 0.0237-0.12198 0.0813-0.22701 0.061-0.10504 0.16263-0.19652 0.10504-0.094871 0.26429-0.18296 0.13891-0.074541 0.24395-0.12875 0.10504-0.0576 0.17619-0.10504 0.0745-0.047435 0.11181-0.094871 0.0373-0.050824 0.0373-0.1152 0-0.067765-0.0373-0.12198-0.0373-0.0576-0.10504-0.091482-0.0678-0.033882-0.16941-0.033882-0.0813 0-0.15247 0.020329-0.0678 0.020329-0.12875 0.0576-0.0576 0.037271-0.10842 0.084706-0.0508 0.044047-0.0915 0.094871l-0.288-0.33205q0.0474-0.047435 0.12537-0.10165 0.0813-0.0576 0.18974-0.10504 0.11181-0.050824 0.24395-0.081318 0.13553-0.033882 0.288-0.033882 0.2304 0 0.39304 0.074541 0.16263 0.071153 0.24734 0.19991 0.0881 0.12875 0.0881 0.30155 0 0.11859-0.044 0.21007-0.044 0.091483-0.11182 0.16264-0.0678 0.067765-0.14908 0.12198-0.0779 0.054212-0.15247 0.094871-0.10503 0.054212-0.18974 0.10165-0.0847 0.044047-0.14908 0.091483-0.0644 0.044047-0.1152 0.091482-0.0474 0.047435-0.0847 0.10842h1.0334v0.40998z"/></g></g></g><style type="text/css">
</style></svg>
